# xmcd
#
# Track frame offsets:
# 150
# 21995
# 43295
# 64683
# 86073
# 104123
# 126743
# 153152
# 169585
# 188352
# 211907
# 232929
#
# Disc length: 3363 seconds
#
#
# Revision: 1
# Processed by: cddbd v1.4PL0 Copyright (c) Steve Scherf et al.
# Submitted via: FreeRIP 2.35 
#
DISCID=a20d210c
DTITLE=Lucinda Williams - World Without Tears
DYEAR=2003
DGENRE=Classic Rock
TTITLE0=01
TTITLE1=02
TTITLE2=03
TTITLE3=04
TTITLE4=05
TTITLE5=06
TTITLE6=07
TTITLE7=08
TTITLE8=09
TTITLE9=10
TTITLE10=11
TTITLE11=12
EXTD=YEAR: 2003
EXTT0=
EXTT1=
EXTT2=
EXTT3=
EXTT4=
EXTT5=
EXTT6=
EXTT7=
EXTT8=
EXTT9=
EXTT10=
EXTT11=
PLAYORDER=
